<?xml version="1.0" encoding="iso-8859-1"?>
<!-- Generator: Adobe Illustrator 18.0.0, SVG Export Plug-In . SVG Version: 6.00 Build 0)  -->
<!DOCTYPE svg PUBLIC "-//W3C//DTD SVG 1.1//EN" "http://www.w3.org/Graphics/SVG/1.1/DTD/svg11.dtd">
<svg version="1.1" id="Capa_1" xmlns="http://www.w3.org/2000/svg" xmlns:xlink="http://www.w3.org/1999/xlink" x="0px" y="0px"
	 viewBox="0 0 490.216 490.216" style="enable-background:new 0 0 490.216 490.216;" xml:space="preserve">
<g>
	<path d="M345.4,167.585C345.603,167.73,345.219,167.4,345.4,167.585L345.4,167.585z"/>
	<path d="M399.879,284.324c6.538,0,12.706-2.505,17.4-7.076c9.854-9.599,10.065-25.427,0.471-35.282L345.4,167.585
		c-12.024-11.549-29.746-18.998-48.391-18.998c-8.145,0-16.053,1.372-23.381,3.869l-125.686-0.074c-0.007,0-0.013,0-0.02,0
		c-14.087,0-25.555,11.457-25.566,25.546c-0.005,6.597,2.479,12.809,6.997,17.58v14.827H95.979c-1.811,0-3.372,1.192-3.983,2.787
		l-26.36,75.055c-0.151,0.431-0.219,0.902-0.229,1.335c0,16.864,13.709,30.658,30.573,30.658c16.864,0,30.57-13.84,30.57-30.704
		c-0.017-0.41-0.083-0.881-0.227-1.288l-24.347-69.341h63.257l-24.348,69.341c-0.164,0.467-0.224,0.943-0.224,1.412l-0.017-0.003
		c0,16.864,13.72,30.584,30.584,30.584c16.864,0,30.573-13.765,30.573-30.629c-0.008-0.439-0.076-0.927-0.23-1.363l-26.339-74.985
		c-0.574-1.666-2.144-2.856-4.005-2.856h-33.375v-8.878c3.134,1.343,6.536,2.054,10.048,2.056l82.73,0.074l-44.55,151.928
		c-0.377,1.285-0.126,2.672,0.677,3.743c0.802,1.072,2.063,1.703,3.401,1.703h44.845c-0.02,0.164-0.05,0.324-0.05,0.493v100.366
		c0,15.658,12.739,28.397,28.397,28.397c15.657,0,28.395-12.739,28.395-28.397V361.453c0-0.169-0.03-0.33-0.05-0.493h10.592
		c-0.02,0.164-0.05,0.324-0.05,0.493v100.366c0,15.658,12.739,28.397,28.398,28.397c15.658,0,28.397-12.739,28.397-28.397V361.453
		c0-0.169-0.03-0.33-0.05-0.493h44.843c1.339,0,2.6-0.631,3.401-1.702c0.803-1.072,1.054-2.459,0.677-3.744l-22.149-75.556
		c4.027,2.773,8.783,4.297,13.783,4.364C399.653,284.324,399.766,284.324,399.879,284.324z M95.979,311.667
		c-10.725,0-19.688-7.683-21.674-17.834h43.348C115.666,303.985,106.703,311.667,95.979,311.667z M116.317,285.333H75.641
		l20.338-57.922L116.317,285.333z M171.229,311.667c-10.725,0-19.688-7.683-21.674-17.834h43.348
		C190.916,303.985,181.953,311.667,171.229,311.667z M191.566,285.333h-40.675l20.338-57.921L191.566,285.333z M315.378,159.762
		c1.077,0.321,2.137,0.677,3.187,1.052l-6.921,11.987c-1.033-1.35-1.8-2.292-2.195-2.769L315.378,159.762z M326.446,229.846
		l-7.28-0.607c0.346-8.297-0.286-26.905-10.448-45.924C315.597,193.425,325.977,211.608,326.446,229.846z M275.816,229.239
		l-7.278,0.607c0.474-18.164,10.81-36.324,17.688-46.457C276.1,202.383,275.47,220.952,275.816,229.239z M279.077,159.626
		l6.191,10.725c-0.476,0.581-1.233,1.529-2.186,2.784l-7.211-12.49C276.927,160.278,277.995,159.939,279.077,159.626z
		 M147.908,195.013c-4.559-0.003-8.843-1.781-12.064-5.007c-3.22-3.226-4.991-7.513-4.988-12.072
		c0.007-9.406,7.661-17.052,17.066-17.052c0.004,0,0.009,0,0.013,0l108.749,0.064c-10.841,7.487-18.938,17.902-22.328,29.939
		l-1.286,4.385c-0.371-0.106-0.756-0.182-1.161-0.182L147.908,195.013z M195.835,352.46l45.305-154.502l5.384,26.92V352.46H195.835z
		 M283.247,361.453v100.366c0,10.971-8.925,19.897-19.895,19.897c-1.919,0-3.768-0.288-5.525-0.797
		c0.496-0.696,0.796-1.542,0.796-2.461v-26c0-2.347-1.902-4.25-4.25-4.25c-2.348,0-4.25,1.903-4.25,4.25v24.182
		c-4.081-3.646-6.668-8.93-6.668-14.82V361.453c0-0.169-0.03-0.33-0.05-0.493h39.892
		C283.278,361.124,283.247,361.284,283.247,361.453z M293.017,352.46h-37.993V224.457c0-0.28-0.027-0.559-0.083-0.833l-8-40
		c-0.023-0.118-0.07-0.224-0.104-0.337c4.765-8.001,12.18-14.675,21.16-19.283l9.642,16.702c0.017,0.029,0.037,0.053,0.055,0.081
		c-8.032,12.262-18.922,33.03-17.558,53.947c0.074,1.138,0.603,2.199,1.467,2.943c0.775,0.667,1.76,1.03,2.775,1.03
		c0.117,0,0.235-0.005,0.352-0.015l15.999-1.333c1.16-0.097,2.228-0.668,2.958-1.574c0.73-0.906,1.055-2.075,0.901-3.228
		c-0.032-0.244-2.694-21.691,8.429-43.765V352.46z M287.807,157.747c3.011-0.431,6.085-0.66,9.202-0.66
		c3.279,0,6.514,0.253,9.676,0.732l-9.409,16.31L287.807,157.747z M301.517,352.46V187.936c11.631,22.372,8.909,44.373,8.877,44.614
		c-0.157,1.155,0.166,2.324,0.895,3.233c0.73,0.91,1.801,1.48,2.963,1.576l16,1.333c0.117,0.01,0.235,0.015,0.352,0.015
		c1.015,0,2-0.363,2.774-1.03c0.864-0.745,1.393-1.805,1.467-2.943c1.379-21.14-9.759-42.127-17.814-54.335
		c0.098-0.13,0.191-0.264,0.274-0.408l9.095-15.75c5.04,2.643,9.85,6.207,13.694,10.029c2.447,2.506,4.86,5.499,6.661,8.403
		c-0.138,0.299-0.254,0.613-0.321,0.951l-8,40c-0.056,0.274-0.083,0.554-0.083,0.833V352.46H301.517z M350.534,361.453v100.366
		c0,8.04-4.803,14.965-11.682,18.1v-58.462c0-2.347-1.902-4.25-4.25-4.25c-2.348,0-4.25,1.903-4.25,4.25v60
		c0,0.084,0.02,0.162,0.025,0.245c-10.851-0.142-19.638-9-19.638-19.883V361.453c0-0.169-0.03-0.33-0.05-0.493h39.895
		C350.565,361.124,350.534,361.284,350.534,361.453z M398.153,352.46h-51.3V224.878l5.637-28.185L398.153,352.46z M380.98,263.664
		l-19.868-67.773l50.546,52.002c6.327,6.499,6.19,16.937-0.309,23.266c-3.096,3.014-7.161,4.666-11.473,4.665
		c-0.074,0-0.149,0-0.225-0.001c-4.395-0.058-8.503-1.824-11.591-4.996L380.98,263.664z"/>
	<path d="M208.999,118.528c0.344-0.023,34.59-2.171,48.705,8.673c0.048,0.037,0.101,0.062,0.149,0.096
		c10.058,8.369,22.977,13.411,37.054,13.411c13.676,0,26.471-4.841,36.549-13.018c0.093-0.058,0.189-0.106,0.278-0.172
		c15.688-11.554,53.571-9.018,53.949-8.991c2.186,0.159,4.125-1.372,4.492-3.528c6.151-36.254-7.665-67.477-39.958-90.294
		C326.617,8.029,301.66,1.723,299.862,1.283C297.569,0.66,293.323,0,290.573,0c-8.411,0-13.955,3.913-17.929,8.023
		c-2.621-0.905-5.347-1.369-8.142-1.369c-6.641,0-12.896,2.534-17.634,7.14c-1.524,1.3-14.537,12.627-26.171,30.077
		c-16.282,24.423-21.849,49.139-16.099,71.477C205.109,117.328,206.957,118.677,208.999,118.528z M294.907,132.208
		c-27.308,0-49.524-22.217-49.524-49.525c0-13.619,5.554-26.476,15.329-35.807c14.838,14.221,45.746,40.175,81.824,49.395
		C336.545,117.299,317.084,132.208,294.907,132.208z M252.467,20.19c0.086-0.072,0.168-0.147,0.247-0.225
		c3.152-3.103,7.338-4.812,11.788-4.812c2.57,0,5.06,0.588,7.401,1.748c1.789,0.887,3.891,0.388,5.124-1.073l0.009,0.008
		c4.402-5.21,8.324-7.336,13.537-7.336c1.729,0,5.31,0.502,7.094,0.995c0.045,0.013,0.091,0.024,0.136,0.035
		c0.246,0.059,24.85,6.105,47.51,22.116c28.733,20.302,41.183,46.601,37.043,78.21c-7.368-0.252-23.675-0.291-38.065,3.274
		c2.858-4.61,5.084-9.667,6.564-15.058c4.882,0.863,9.838,1.402,14.848,1.533c0.038,0.001,0.075,0.001,0.113,0.001
		c2.296,0,4.186-1.83,4.247-4.139c0.061-2.346-1.791-4.298-4.138-4.36c-55.958-1.468-107.67-58.83-108.186-59.409
		c-1.561-1.753-4.247-1.91-6-0.349c-1.753,1.56-1.91,4.245-0.351,5.998c0.285,0.321,1.421,1.584,3.301,3.533
		c-11.357,10.92-17.807,25.917-17.807,41.801c0,11.043,3.104,21.374,8.48,30.171c-12.754-3.095-26.787-3.152-33.293-2.966
		C202.704,62.761,251.958,20.619,252.467,20.19z"/>
	<path d="M254.373,442.707c2.348,0,4.25-1.903,4.25-4.25v-31c0-2.347-1.902-4.25-4.25-4.25c-2.348,0-4.25,1.903-4.25,4.25v31
		C250.123,440.805,252.026,442.707,254.373,442.707z"/>
	<path d="M126.549,289.463C126.552,289.525,126.549,289.401,126.549,289.463L126.549,289.463z"/>
</g>
<g>
</g>
<g>
</g>
<g>
</g>
<g>
</g>
<g>
</g>
<g>
</g>
<g>
</g>
<g>
</g>
<g>
</g>
<g>
</g>
<g>
</g>
<g>
</g>
<g>
</g>
<g>
</g>
<g>
</g>
</svg>
